<mxfile host="app.diagrams.net" modified="2024-04-20T11:40:41.825Z" agent="Mozilla/5.0 (Windows NT 10.0; Win64; x64) AppleWebKit/537.36 (KHTML, like Gecko) Chrome/124.0.0.0 Safari/537.36" version="24.2.0" etag="QbCQ8YjLpqO5Ef2YqzI0" type="github">
  <diagram name="Page-1" id="O07rGp0m6fBc_2v2LWnP">
    <mxGraphModel>
      <root>
        <mxCell id="0" />
        <mxCell id="1" parent="0" />
      </root>
    </mxGraphModel>
  </diagram>
</mxfile>
